<svg width="158" height="140" viewBox="0 0 158 140" fill="none" xmlns="http://www.w3.org/2000/svg">
<path d="M60.6438 15.2983C36.8464 27.5158 28.1577 45.0738 28.8785 64.4868C30.4721 107.407 79.5543 104.751 87.7346 119.093" stroke="white" stroke-width="3.18715"/>
<path d="M44.8139 31.1279C34.2963 30.5967 35.6774 38.0334 35.5712 39.4145C37.448 39.2021 39.3255 39.1158 40.4581 38.6709C43.4328 37.5023 44.0702 36.1211 44.0702 33.8901C44.0702 31.394 45.1322 31.144 44.8139 31.1279Z" fill="white"/>
<path d="M33.0133 26.8101C41.2017 31.659 36.2428 37.5764 35.5014 38.7465C34.1249 37.4531 32.6302 36.4943 31.9891 35.46C30.3052 32.7436 30.621 31.2556 31.9561 29.4682C33.4499 27.4683 32.739 26.6478 33.0133 26.8101Z" fill="white"/>
<path d="M38.5925 43.3058C28.1696 41.7876 28.8255 49.814 28.5861 51.2718C30.4758 51.2162 32.3539 51.2949 33.5249 50.9248C36.6004 49.953 37.3688 48.5435 37.5846 46.1731C37.8262 43.521 38.9079 43.3518 38.5925 43.3058Z" fill="white"/>
<path d="M27.2589 37.6483C34.9445 43.5426 29.4335 49.3799 28.5819 50.5558C27.3362 49.0568 25.9405 47.9025 25.4021 46.7455C23.9879 43.7067 24.4464 42.1545 25.9489 40.3765C27.63 38.3872 27.0015 37.4509 27.2589 37.6483Z" fill="white"/>
<path d="M35.5717 53.567C24.5518 55.9015 28.0744 63.3851 28.3537 64.8748C30.2336 64.1333 32.1498 63.5251 33.195 62.7427C35.9402 60.6878 36.2099 59.0518 35.5813 56.6927C34.8781 54.0531 35.9052 53.4964 35.5717 53.567Z" fill="white"/>
<path d="M22.1589 52.2511C31.988 55.1237 28.53 62.7465 28.0934 64.1879C26.3063 63.1993 24.4914 62.597 23.5374 61.6798C21.0317 59.2711 20.9388 57.6107 21.8151 55.3529C22.7956 52.8269 21.8297 52.1549 22.1589 52.2511Z" fill="white"/>
<path d="M36.103 64.6962C26.1506 69.9723 32.0729 76.9008 32.841 78.3885C34.4245 77.1291 36.0877 75.9999 36.8448 74.9123C38.8334 72.0556 38.5511 70.2738 37.1533 67.9657C35.5895 65.3833 36.4042 64.5365 36.103 64.6962Z" fill="white"/>
<path d="M22.6049 66.7658C33.1321 67.2466 32.3039 76.115 32.3589 77.7362C30.2895 77.1606 28.3218 76.9965 27.0874 76.2816C23.8454 74.4041 23.202 72.6898 23.3033 70.1012C23.4165 67.2048 22.2523 66.7497 22.6049 66.7658Z" fill="white"/>
<path d="M39.7774 76.8581C30.5157 86.1564 38.9903 91.4297 40.2628 92.7458C41.6128 90.8157 43.0877 88.9962 43.5904 87.5523C44.9104 83.7598 44.0792 81.9504 41.8811 79.9837C39.4217 77.7832 40.0577 76.5767 39.7774 76.8581Z" fill="white"/>
<path d="M25.7188 84.0098C37.2995 80.6806 39.0097 90.5018 39.5466 92.2217C37.1286 92.3598 34.9421 92.9024 33.3904 92.586C29.3149 91.7551 28.1113 90.1501 27.4594 87.3346C26.73 84.1845 25.331 84.1213 25.7188 84.0098Z" fill="white"/>
<path d="M45.6732 86.205C39.6113 97.8451 49.2741 100.347 50.8816 101.223C51.5935 98.9773 52.4577 96.8004 52.5061 95.2722C52.6332 91.2586 51.2996 89.78 48.6143 88.5596C45.61 87.1941 45.8566 85.8527 45.6732 86.205Z" fill="white"/>
<path d="M34.3926 97.2292C44.4504 90.5931 49.0159 99.4552 50.0419 100.936C47.7755 101.79 45.8509 102.961 44.2755 103.123C40.1379 103.547 38.5098 102.375 37.0468 99.8824C35.4099 97.0939 34.0558 97.4514 34.3926 97.2292Z" fill="white"/>
<path d="M55.8422 93.1521C54.2029 108.156 65.3637 106.804 67.4071 107.072C67.2431 104.369 67.2667 101.675 66.6971 100.017C65.2013 95.6631 63.2008 94.6352 59.886 94.448C56.1773 94.2385 55.8918 92.6981 55.8422 93.1521Z" fill="white"/>
<path d="M48.4734 109.674C56.3394 98.3647 64.7304 105.956 66.409 107.115C64.376 108.976 62.8307 111.034 61.2422 111.865C57.0702 114.046 54.8849 113.469 52.3371 111.409C49.4865 109.104 48.2099 110.052 48.4734 109.674Z" fill="white"/>
<path d="M51.9232 25.1072C45.1708 21.3733 43.3851 27.4332 42.814 28.4437C44.1304 28.8777 45.4014 29.4074 46.3107 29.4298C48.6989 29.4888 49.6209 28.6466 50.4302 26.9599C51.3357 25.0727 52.1276 25.2202 51.9232 25.1072Z" fill="white"/>
<path d="M45.6976 18.1039C49.3458 24.3642 43.9247 27.2667 43.0107 27.9165C42.5709 26.5025 41.9318 25.304 41.8836 24.3189C41.757 21.7317 42.5053 20.7069 44.0353 19.7785C45.7472 18.7399 45.5754 17.8943 45.6976 18.1039Z" fill="white"/>
<path d="M59.5775 19.2551C52.8251 15.5211 51.0394 21.581 50.4683 22.5915C51.7847 23.0255 53.0557 23.5552 53.965 23.5776C56.3532 23.6366 57.2752 22.7944 58.0845 21.1077C58.99 19.2206 59.7819 19.3681 59.5775 19.2551Z" fill="white"/>
<path d="M53.3519 12.252C57.0001 18.5123 51.579 21.4148 50.665 22.0645C50.2252 20.6505 49.586 19.4521 49.5379 18.467C49.4113 15.8798 50.1596 14.8549 51.6896 13.9266C53.4015 12.8879 53.2297 12.0423 53.3519 12.252Z" fill="white"/>
<path d="M66.1675 12.3236C65.6363 22.3101 57.0688 17.1554 55.9686 16.7857C56.6576 15.5829 57.3258 14.5418 57.9871 13.9172C59.7239 12.277 61.4965 11.8229 63.299 12.3236C65.2113 12.8548 66.1799 12.0905 66.1675 12.3236Z" fill="white"/>
<path d="M96.8713 15.2976C120.669 27.515 129.357 45.0731 128.637 64.486C127.043 107.406 77.9609 104.75 69.7805 119.093" stroke="white" stroke-width="3.18715"/>
<path d="M112.7 31.1272C123.217 30.596 121.836 38.0327 121.943 39.4138C120.066 39.2013 118.188 39.1151 117.056 38.6701C114.081 37.5015 113.443 36.1204 113.443 33.8894C113.443 31.3932 112.381 31.1433 112.7 31.1272Z" fill="white"/>
<path d="M124.501 26.8097C116.312 31.6586 121.271 37.5759 122.013 38.746C123.389 37.4526 124.884 36.4938 125.525 35.4595C127.209 32.7431 126.893 31.2551 125.558 29.4677C124.064 27.4678 124.775 26.6473 124.501 26.8097Z" fill="white"/>
<path d="M118.922 43.305C129.345 41.7868 128.689 49.8132 128.929 51.2709C127.039 51.2154 125.161 51.294 123.99 50.924C120.914 49.9522 120.146 48.5426 119.93 46.1722C119.688 43.5202 118.607 43.3509 118.922 43.305Z" fill="white"/>
<path d="M130.256 37.6473C122.57 43.5417 128.081 49.3789 128.933 50.5548C130.178 49.0558 131.574 47.9016 132.113 46.7445C133.527 43.7058 133.068 42.1535 131.566 40.3755C129.885 38.3862 130.513 37.4499 130.256 37.6473Z" fill="white"/>
<path d="M121.942 53.5664C132.962 55.9009 129.44 63.3845 129.16 64.8742C127.281 64.1327 125.364 63.5245 124.319 62.7421C121.574 60.6872 121.304 59.0512 121.933 56.6921C122.636 54.0525 121.609 53.4958 121.942 53.5664Z" fill="white"/>
<path d="M135.355 52.2499C125.526 55.1225 128.984 62.7452 129.421 64.1867C131.208 63.198 133.023 62.5957 133.977 61.6786C136.482 59.2699 136.575 57.6095 135.699 55.3517C134.719 52.8256 135.684 52.1537 135.355 52.2499Z" fill="white"/>
<path d="M121.411 64.6955C131.363 69.9716 125.441 76.9001 124.673 78.3877C123.089 77.1283 121.426 75.9992 120.669 74.9115C118.68 72.0549 118.963 70.273 120.36 67.965C121.924 65.3826 121.11 64.5358 121.411 64.6955Z" fill="white"/>
<path d="M134.909 66.7649C124.382 67.2458 125.21 76.1142 125.155 77.7353C127.224 77.1597 129.192 76.9956 130.426 76.2808C133.668 74.4033 134.312 72.689 134.21 70.1003C134.097 67.204 135.261 66.7488 134.909 66.7649Z" fill="white"/>
<path d="M117.737 76.8575C126.999 86.1558 118.524 91.4291 117.252 92.7452C115.902 90.8151 114.427 88.9956 113.924 87.5517C112.604 83.7592 113.435 81.9498 115.634 79.983C118.093 77.7826 117.457 76.5761 117.737 76.8575Z" fill="white"/>
<path d="M131.795 84.0092C120.215 80.68 118.504 90.5012 117.968 92.2211C120.386 92.3591 122.572 92.9018 124.124 92.5854C128.199 91.7544 129.403 90.1495 130.055 87.334C130.784 84.1839 132.183 84.1207 131.795 84.0092Z" fill="white"/>
<path d="M111.84 86.2043C117.902 97.8443 108.24 100.346 106.632 101.222C105.92 98.9766 105.056 96.7997 105.008 95.2715C104.88 91.2579 106.214 89.7793 108.899 88.5589C111.904 87.1934 111.657 85.852 111.84 86.2043Z" fill="white"/>
<path d="M123.121 97.2283C113.063 90.5922 108.498 99.4544 107.472 100.935C109.738 101.789 111.663 102.96 113.238 103.122C117.376 103.546 119.004 102.374 120.467 99.8815C122.104 97.0931 123.458 97.4505 123.121 97.2283Z" fill="white"/>
<path d="M101.673 93.1514C103.312 108.155 92.1514 106.803 90.108 107.071C90.2721 104.368 90.2484 101.674 90.818 100.016C92.3139 95.6624 94.3144 94.6345 97.6291 94.4472C101.338 94.2377 101.623 92.6973 101.673 93.1514Z" fill="white"/>
<path d="M109.042 109.673C101.176 98.3643 92.7852 105.956 91.1067 107.115C93.1396 108.976 94.6849 111.034 96.2734 111.864C100.445 114.046 102.631 113.469 105.178 111.409C108.029 109.104 109.306 110.052 109.042 109.673Z" fill="white"/>
<path d="M105.591 25.1067C112.343 21.3728 114.129 27.4327 114.7 28.4432C113.384 28.8772 112.113 29.4069 111.203 29.4293C108.815 29.4883 107.893 28.6461 107.084 26.9594C106.179 25.0722 105.387 25.2198 105.591 25.1067Z" fill="white"/>
<path d="M111.817 18.1036C108.169 24.3639 113.59 27.2664 114.504 27.9161C114.944 26.5021 115.583 25.3037 115.631 24.3186C115.758 21.7314 115.009 20.7065 113.479 19.7782C111.767 18.7395 111.939 17.8939 111.817 18.1036Z" fill="white"/>
<path d="M97.9371 19.2546C104.69 15.5206 106.475 21.5805 107.046 22.591C105.73 23.025 104.459 23.5547 103.55 23.5772C101.161 23.6361 100.239 22.7939 99.4302 21.1072C98.5247 19.2201 97.7328 19.3676 97.9371 19.2546Z" fill="white"/>
<path d="M104.163 12.2514C100.515 18.5117 105.936 21.4142 106.85 22.0639C107.289 20.6499 107.929 19.4515 107.977 18.4664C108.103 15.8792 107.355 14.8543 105.825 13.926C104.113 12.8873 104.285 12.0417 104.163 12.2514Z" fill="white"/>
<path d="M91.3467 12.3232C91.8779 22.3096 100.445 17.1549 101.546 16.7852C100.857 15.5824 100.188 14.5413 99.527 13.9167C97.7903 12.2765 96.0177 11.8224 94.2151 12.3232C92.3028 12.8544 91.3343 12.09 91.3467 12.3232Z" fill="white"/>
<path d="M147.72 59.6883C147.449 60.2727 147.093 60.8596 146.652 61.449C146.203 62.0386 145.611 62.3442 144.874 62.3659C144.162 62.3783 143.565 62.1034 143.082 61.5411C142.591 60.9791 142.331 60.2069 142.302 59.2244C142.289 58.7925 142.34 58.3459 142.453 57.8849C142.558 57.4155 142.72 57.0081 142.939 56.6626L144.522 57.3028C144.374 57.7649 144.283 58.1151 144.247 58.3535C144.203 58.5921 144.186 58.8554 144.194 59.1434C144.202 59.406 144.271 59.6116 144.403 59.7603C144.526 59.9093 144.668 59.9814 144.829 59.9767C145.015 59.9712 145.177 59.8393 145.313 59.581C145.441 59.3145 145.593 59.0006 145.769 58.6394C146.064 58.0204 146.441 57.4202 146.898 56.8388C147.356 56.2574 147.936 55.9563 148.639 55.9357C149.368 55.9143 149.982 56.2056 150.483 56.8098C150.984 57.4054 151.25 58.2368 151.281 59.304C151.294 59.7444 151.245 60.246 151.135 60.8087C151.015 61.3632 150.859 61.8128 150.666 62.1576L148.903 61.4464C149.032 61.2223 149.15 60.9094 149.257 60.5078C149.355 60.098 149.399 59.7365 149.39 59.4231C149.38 59.0589 149.299 58.7857 149.15 58.6036C149 58.4131 148.845 58.3202 148.684 58.3249C148.532 58.3294 148.371 58.474 148.201 58.7587C148.031 59.0434 147.871 59.3533 147.72 59.6883Z" fill="white"/>
<path d="M144.881 68.4301L147.13 69.5039L147.312 67.8232L144.881 68.4301ZM142.255 66.9448L150.967 64.6384L150.95 66.9249L149.19 67.3612L148.869 70.3308L150.498 71.1076L150.251 73.3948L142.006 69.2446L142.255 66.9448Z" fill="white"/>
<path d="M142.094 78.1883L141.773 79.3919L143.983 79.9812L144.311 78.7532C144.402 78.4093 144.375 78.0995 144.23 77.8239C144.076 77.5461 143.835 77.3635 143.507 77.2762C143.139 77.178 142.836 77.2113 142.599 77.3761C142.363 77.541 142.194 77.8117 142.094 78.1883ZM147.772 83.3853L139.421 81.1588L140.357 77.6464C140.604 76.7213 141.043 75.9789 141.674 75.4194C142.3 74.8496 143.116 74.6989 144.123 74.9674C144.631 75.1027 145.04 75.326 145.352 75.6371C145.666 75.94 145.893 76.2898 146.032 76.6866L149.815 75.722L149.124 78.3133L146.136 78.9635L145.739 80.4495L148.368 81.1502L147.772 83.3853Z" fill="white"/>
<path d="M144.839 90.8394L138.561 88.1628L137.564 90.5011L135.892 89.7883L138.793 82.9837L140.55 83.4977L139.468 86.0348L145.746 88.7115L144.839 90.8394Z" fill="white"/>
<path d="M139.675 100.479L132.227 96.0938L135.135 91.1541L136.811 91.89L134.967 95.0225L136.325 95.8221L137.673 93.533L139.348 94.2689L137.891 96.7442L139.282 97.5632L141.21 94.2883L142.886 95.0242L139.675 100.479Z" fill="white"/>
<path d="M138.246 102.666L134.466 107.583L127.613 102.316L129.023 100.482L134.434 104.642L136.673 101.729L138.246 102.666Z" fill="white"/>
<path d="M126.034 116.182L120.137 109.864L124.327 105.953L125.725 107.134L123.068 109.614L124.143 110.767L126.085 108.954L127.483 110.135L125.384 112.095L126.485 113.275L129.263 110.682L130.661 111.863L126.034 116.182Z" fill="white"/>
<path d="M117.187 122.758L112.233 115.675L115.337 113.504C116.427 112.742 117.49 112.495 118.525 112.763C119.556 113.024 120.424 113.659 121.128 114.665C121.9 115.769 122.196 116.865 122.016 117.953C121.831 119.034 121.242 119.921 120.249 120.616L117.187 122.758ZM116.285 115.059L115.17 115.839L118.041 119.942L119.082 119.214C119.52 118.908 119.766 118.477 119.822 117.921C119.878 117.365 119.66 116.736 119.17 116.035C118.762 115.452 118.298 115.062 117.779 114.867C117.262 114.66 116.764 114.724 116.285 115.059Z" fill="white"/>
<path d="M105.45 122.239L105.641 124.724L107.188 124.043L105.45 122.239ZM105.428 119.221L111.771 125.623L109.781 126.748L108.525 125.44L105.791 126.643L105.93 128.443L103.824 129.369L103.31 120.153L105.428 119.221Z" fill="white"/>
<path d="M93.2275 132.365L91.0402 124.004L93.1183 123.46L97.5268 127.155L96.3399 122.617L98.5778 122.032L100.765 130.393L98.6747 130.94L94.3138 127.378L95.4654 131.78L93.2275 132.365Z" fill="white"/>
<path d="M85.0857 127.556L84.4917 129.976L86.1742 129.812L85.0857 127.556ZM86.0059 124.682L90.0357 132.743L87.7936 133.191L87.0084 131.557L84.0357 131.847L83.6065 133.6L81.3168 133.823L83.7036 124.907L86.0059 124.682Z" fill="white"/>
<path d="M72.73 133.553L73.0967 124.918L78.8238 125.161L78.9625 126.986L75.3307 126.832L75.2639 128.407L77.9179 128.519L78.0566 130.345L75.1867 130.223L75.1182 131.835L78.9151 131.997L79.0538 133.822L72.73 133.553Z" fill="white"/>
<path d="M66.7839 125.833L65.5587 125.608L65.1462 127.859L66.3963 128.088C66.7464 128.152 67.053 128.101 67.3162 127.933C67.581 127.758 67.7439 127.504 67.8051 127.17C67.8738 126.795 67.8167 126.496 67.6336 126.273C67.4505 126.05 67.1673 125.903 66.7839 125.833ZM62.0526 131.905L63.6112 123.403L67.1867 124.059C68.1284 124.232 68.9032 124.611 69.5109 125.196C70.1285 125.774 70.3433 126.576 70.1554 127.601C70.0606 128.118 69.8705 128.544 69.5851 128.879C69.308 129.216 68.9771 129.47 68.5927 129.641L69.8536 133.335L67.2158 132.851L66.3311 129.924L64.8184 129.646L64.3279 132.322L62.0526 131.905Z" fill="white"/>
<path d="M60.316 124.665C59.9329 124.367 59.6356 124.16 59.424 124.045C59.2151 123.922 58.974 123.814 58.7007 123.723C58.2104 123.56 57.7241 123.652 57.2416 124C56.7618 124.34 56.3971 124.884 56.1475 125.631C55.8899 126.403 55.8627 127.059 56.0661 127.6C56.2695 128.142 56.6283 128.498 57.1427 128.67C57.4401 128.769 57.7348 128.823 58.0269 128.831C58.3216 128.831 58.5949 128.802 58.8468 128.743L59.1312 130.661C58.7453 130.746 58.3099 130.766 57.8249 130.72C57.348 130.677 56.9006 130.586 56.4826 130.446C55.1485 130.001 54.2753 129.272 53.8632 128.258C53.4591 127.248 53.4637 126.124 53.877 124.886C54.2983 123.624 54.9995 122.715 55.9805 122.158C56.9641 121.593 58.0628 121.514 59.2764 121.919C59.6863 122.056 60.0881 122.257 60.4818 122.522C60.8863 122.782 61.2131 123.075 61.4621 123.399L60.316 124.665Z" fill="white"/>
<path d="M48.8074 120.809L47.0163 122.542L48.528 123.299L48.8074 120.809ZM51.1159 118.866L50.2373 127.835L48.1004 127.022L48.3056 125.22L45.6346 123.883L44.3382 125.139L42.2809 124.109L49.0472 117.831L51.1159 118.866Z" fill="white"/>
<path d="M37.8324 113.898L35.7394 115.252L37.0759 116.287L37.8324 113.898ZM40.4735 112.439L37.8738 121.068L35.935 119.856L36.4855 118.128L34.1241 116.299L32.6089 117.28L30.7901 115.871L38.6447 111.023L40.4735 112.439Z" fill="white"/>
<path d="M27.4495 112.579L33.4546 106.363L35.1183 107.97L29.1131 114.186L27.4495 112.579Z" fill="white"/>
<path d="M23.6461 108.5L26.8828 105.852L24.9225 105.945L24.2367 105.307L24.6697 103.147L21.4331 105.794L19.9685 104.004L26.6581 98.5316L27.6641 99.7613L26.7658 103.862L30.8267 103.628L31.8005 104.818L25.1108 110.29L23.6461 108.5Z" fill="white"/>
<path d="M14.9446 95.9582L22.3659 91.5284L25.3038 96.4505L23.8539 97.5675L21.9908 94.4462L20.6376 95.254L21.9991 97.535L20.5492 98.652L19.0769 96.1856L17.6909 97.0129L19.6387 100.276L18.1888 101.393L14.9446 95.9582Z" fill="white"/>
<path d="M10.387 85.9207L18.3557 82.5746L19.8221 86.0668C20.3371 87.2934 20.3541 88.3844 19.8731 89.34C19.3999 90.2923 18.5969 91.0062 17.4641 91.4819C16.2219 92.0035 15.0883 92.0614 14.0632 91.6555C13.0459 91.2464 12.3027 90.4832 11.8336 89.366L10.387 85.9207ZM18.102 86.665L17.5755 85.4111L12.9583 87.3498L13.4504 88.5217C13.657 89.0139 14.0262 89.346 14.5579 89.5179C15.0896 89.6898 15.75 89.6101 16.539 89.2788C17.1953 89.0032 17.6737 88.6323 17.9742 88.1661C18.2858 87.7044 18.3284 87.2041 18.102 86.665Z" fill="white"/>
<path d="M13.9769 77.2354L11.4959 76.9989L11.9024 78.6397L13.9769 77.2354ZM16.9537 77.7289L9.56272 82.8856L8.79363 80.7323L10.2971 79.7183L9.57891 76.819L7.78211 76.6487L7.22898 74.4157L16.3975 75.4836L16.9537 77.7289Z" fill="white"/>
<path d="M13.2995 70.5841C13.4135 70.1126 13.4797 69.7568 13.4979 69.5164C13.5245 69.2753 13.5233 69.0114 13.4942 68.7248C13.4421 68.2105 13.1582 67.8049 12.6426 67.5081C12.1355 67.2103 11.4899 67.1012 10.7059 67.1807C9.89665 67.2628 9.28699 67.5077 8.87696 67.9155C8.46693 68.3233 8.28928 68.797 8.344 69.3365C8.37563 69.6484 8.44771 69.9392 8.56022 70.2088C8.68116 70.4776 8.82019 70.7148 8.9773 70.9203L7.34606 71.9672C7.10954 71.6505 6.91254 71.2617 6.75507 70.8007C6.59846 70.3482 6.49792 69.9027 6.45347 69.4644C6.31154 68.065 6.61774 66.9693 7.37207 66.1774C8.12725 65.3939 9.15396 64.9364 10.4522 64.8047C11.7757 64.6705 12.8928 64.9362 13.8035 65.6018C14.7226 66.2666 15.2467 67.2354 15.3758 68.5084C15.4194 68.9383 15.401 69.3873 15.3208 69.8553C15.2498 70.331 15.1176 70.7489 14.9241 71.1092L13.2995 70.5841Z" fill="white"/>
<path d="M12.0865 58.5076L9.77067 57.5865L9.70194 59.2756L12.0865 58.5076ZM14.8064 59.814L6.26808 62.6976L6.13199 60.4151L7.85904 59.862L7.98048 56.8777L6.30305 56.2116L6.39658 53.913L14.9004 57.5027L14.8064 59.814Z" fill="white"/>
<path d="M78.7044 0L81.0896 6.90044H88.8083L82.5638 11.1652L84.949 18.0656L78.7044 13.8009L72.4599 18.0656L74.8451 11.1652L68.6005 6.90044H76.3192L78.7044 0Z" fill="white"/>
<path d="M57.318 60.3272C56.6725 58.3678 56.004 56.4199 55.3125 54.4836C54.644 52.5472 53.9985 50.5994 53.3761 48.64C52.7076 50.5994 52.0391 52.5472 51.3706 54.4836C50.7252 56.4199 50.0682 58.3678 49.3997 60.3272H57.318ZM67.6912 70.2509C67.6912 70.5967 67.4722 70.7696 67.0343 70.7696C66.896 70.7696 66.7576 70.7696 66.6193 70.7696C66.481 70.7696 66.3312 70.758 66.1698 70.735C65.5935 70.6889 64.9942 70.6658 64.3718 70.6658C63.7725 70.6658 63.1731 70.6658 62.5738 70.6658C61.8131 70.6658 61.0524 70.6658 60.2916 70.6658C59.5309 70.6658 58.7587 70.6889 57.975 70.735C57.8827 70.758 57.7905 70.7696 57.6983 70.7696C57.6061 70.7696 57.5139 70.7696 57.4217 70.7696C57.099 70.7696 56.9376 70.6082 56.9376 70.2855C56.9376 70.0089 57.0298 69.8475 57.2142 69.8014C57.4217 69.7322 57.6522 69.7092 57.9058 69.7322C58.1594 69.7553 58.3668 69.7668 58.5282 69.7668C58.9431 69.7668 59.2428 69.6861 59.4272 69.5248C59.6347 69.3404 59.7384 69.0292 59.7384 68.5912C59.7384 68.3376 59.6577 67.8996 59.4964 67.2772C59.335 66.6318 59.1391 65.9287 58.9085 65.168C58.678 64.4073 58.4475 63.7042 58.217 63.0588C58.0095 62.3903 57.8597 61.9177 57.7675 61.6411H48.9502C48.9041 61.7794 48.8004 62.0906 48.639 62.5747C48.4777 63.0588 48.2817 63.6235 48.0512 64.269C47.8437 64.9144 47.6363 65.5484 47.4288 66.1708C47.2213 66.7932 47.0485 67.3349 46.9102 67.7959C46.7718 68.2339 46.7027 68.499 46.7027 68.5912C46.7027 69.0292 46.8179 69.3288 47.0485 69.4902C47.279 69.6516 47.5671 69.7438 47.9129 69.7668C48.2587 69.7668 48.5929 69.7668 48.9156 69.7668C49.0309 69.7668 49.1231 69.8475 49.1923 70.0089C49.2614 70.1472 49.296 70.274 49.296 70.3892C49.296 70.5275 49.2384 70.6313 49.1231 70.7004C49.0309 70.7696 48.9272 70.8041 48.8119 70.8041C48.0512 70.8041 47.2905 70.7811 46.5298 70.735C45.7921 70.7119 45.0545 70.7004 44.3168 70.7004C43.948 70.7004 43.5792 70.7119 43.2104 70.735C42.8415 70.758 42.4612 70.7696 42.0693 70.7696C41.954 70.7696 41.8388 70.7235 41.7235 70.6313C41.6083 70.5391 41.5506 70.4353 41.5506 70.3201C41.5506 70.0665 41.6428 69.9051 41.8273 69.836C42.0117 69.7668 42.2191 69.7438 42.4497 69.7668C42.7032 69.7668 42.9107 69.7668 43.072 69.7668C43.3717 69.7668 43.6138 69.6516 43.7982 69.421C44.0056 69.1675 44.1555 68.9254 44.2477 68.6949C45.6077 65.2833 46.8986 61.8601 48.1204 58.4254C49.3421 54.9676 50.5293 51.4984 51.6818 48.0176C51.7741 47.764 51.8893 47.4067 52.0276 46.9457C52.1659 46.4846 52.2351 46.1389 52.2351 45.9083C52.2351 45.77 52.2005 45.6548 52.1314 45.5626C52.0853 45.4473 52.0622 45.3436 52.0622 45.2514C52.0622 45.1592 52.1775 45.09 52.408 45.0439C52.6385 44.9978 52.8805 44.9632 53.1341 44.9402C53.3877 44.9171 53.549 44.9056 53.6182 44.9056C54.1023 44.8364 54.5748 44.7673 55.0359 44.6981C55.52 44.629 56.004 44.5713 56.4881 44.5252L64.9596 68.4183C65.144 68.9715 65.3861 69.3288 65.6857 69.4902C66.0085 69.6285 66.4349 69.6977 66.9651 69.6977C67.1726 69.6977 67.3455 69.7322 67.4838 69.8014C67.6221 69.8475 67.6912 69.9973 67.6912 70.2509ZM84.0953 60.3272C83.4498 58.3678 82.7813 56.4199 82.0898 54.4836C81.4213 52.5472 80.7759 50.5994 80.1535 48.64C79.485 50.5994 78.8165 52.5472 78.148 54.4836C77.5025 56.4199 76.8455 58.3678 76.177 60.3272H84.0953ZM94.4685 70.2509C94.4685 70.5967 94.2496 70.7696 93.8116 70.7696C93.6733 70.7696 93.535 70.7696 93.3966 70.7696C93.2583 70.7696 93.1085 70.758 92.9471 70.735C92.3708 70.6889 91.7715 70.6658 91.1491 70.6658C90.5498 70.6658 89.9504 70.6658 89.3511 70.6658C88.5904 70.6658 87.8297 70.6658 87.069 70.6658C86.3083 70.6658 85.536 70.6889 84.7523 70.735C84.6601 70.758 84.5679 70.7696 84.4756 70.7696C84.3834 70.7696 84.2912 70.7696 84.199 70.7696C83.8763 70.7696 83.7149 70.6082 83.7149 70.2855C83.7149 70.0089 83.8071 69.8475 83.9916 69.8014C84.199 69.7322 84.4295 69.7092 84.6831 69.7322C84.9367 69.7553 85.1441 69.7668 85.3055 69.7668C85.7204 69.7668 86.0201 69.6861 86.2045 69.5248C86.412 69.3404 86.5157 69.0292 86.5157 68.5912C86.5157 68.3376 86.435 67.8996 86.2737 67.2772C86.1123 66.6318 85.9164 65.9287 85.6859 65.168C85.4553 64.4073 85.2248 63.7042 84.9943 63.0588C84.7868 62.3903 84.637 61.9177 84.5448 61.6411H75.7275C75.6814 61.7794 75.5777 62.0906 75.4163 62.5747C75.255 63.0588 75.059 63.6235 74.8285 64.269C74.6211 64.9144 74.4136 65.5484 74.2061 66.1708C73.9987 66.7932 73.8258 67.3349 73.6875 67.7959C73.5492 68.2339 73.48 68.499 73.48 68.5912C73.48 69.0292 73.5953 69.3288 73.8258 69.4902C74.0563 69.6516 74.3444 69.7438 74.6902 69.7668C75.036 69.7668 75.3702 69.7668 75.693 69.7668C75.8082 69.7668 75.9004 69.8475 75.9696 70.0089C76.0387 70.1472 76.0733 70.274 76.0733 70.3892C76.0733 70.5275 76.0157 70.6313 75.9004 70.7004C75.8082 70.7696 75.7045 70.8041 75.5892 70.8041C74.8285 70.8041 74.0678 70.7811 73.3071 70.735C72.5695 70.7119 71.8318 70.7004 71.0941 70.7004C70.7253 70.7004 70.3565 70.7119 69.9877 70.735C69.6188 70.758 69.2385 70.7696 68.8466 70.7696C68.7314 70.7696 68.6161 70.7235 68.5008 70.6313C68.3856 70.5391 68.3279 70.4353 68.3279 70.3201C68.3279 70.0665 68.4202 69.9051 68.6046 69.836C68.789 69.7668 68.9964 69.7438 69.227 69.7668C69.4805 69.7668 69.688 69.7668 69.8494 69.7668C70.149 69.7668 70.3911 69.6516 70.5755 69.421C70.783 69.1675 70.9328 68.9254 71.025 68.6949C72.385 65.2833 73.6759 61.8601 74.8977 58.4254C76.1194 54.9676 77.3066 51.4984 78.4592 48.0176C78.5514 47.764 78.6666 47.4067 78.8049 46.9457C78.9432 46.4846 79.0124 46.1389 79.0124 45.9083C79.0124 45.77 78.9778 45.6548 78.9087 45.5626C78.8626 45.4473 78.8395 45.3436 78.8395 45.2514C78.8395 45.1592 78.9548 45.09 79.1853 45.0439C79.4158 44.9978 79.6578 44.9632 79.9114 44.9402C80.165 44.9171 80.3263 44.9056 80.3955 44.9056C80.8796 44.8364 81.3521 44.7673 81.8132 44.6981C82.2973 44.629 82.7813 44.5713 83.2654 44.5252L91.7369 68.4183C91.9213 68.9715 92.1634 69.3288 92.4631 69.4902C92.7858 69.6285 93.2122 69.6977 93.7424 69.6977C93.9499 69.6977 94.1228 69.7322 94.2611 69.8014C94.3994 69.8475 94.4685 69.9973 94.4685 70.2509ZM117.442 62.6439C117.442 63.0127 117.419 63.3815 117.373 63.7503C117.327 64.1192 117.281 64.4995 117.235 64.8914C117.143 65.6982 117.039 66.505 116.924 67.3118C116.808 68.1186 116.716 68.9254 116.647 69.7322C116.647 69.9628 116.601 70.1587 116.509 70.3201C116.393 70.4814 116.221 70.5736 115.99 70.5967C115.76 70.6428 115.552 70.6658 115.368 70.6658C115.091 70.6658 114.814 70.6543 114.538 70.6313C114.261 70.6313 113.973 70.6313 113.673 70.6313C112.221 70.6082 110.769 70.5967 109.317 70.5967C107.864 70.5967 106.412 70.5967 104.96 70.5967H101.018C100.511 70.5967 100.004 70.5967 99.4966 70.5967C99.0125 70.5967 98.5169 70.6082 98.0098 70.6313C97.7562 70.6543 97.5026 70.6658 97.2491 70.6658C96.9955 70.6889 96.7419 70.7004 96.4884 70.7004C96.2809 70.7004 96.0965 70.6428 95.9351 70.5275C95.7968 70.4123 95.7277 70.2509 95.7277 70.0434C95.7277 69.8129 95.7968 69.64 95.9351 69.5248C96.0965 69.4095 96.2694 69.3519 96.4538 69.3519C96.6382 69.3519 96.8226 69.3634 97.007 69.3865C97.2145 69.4095 97.4104 69.421 97.5948 69.421C97.9637 69.421 98.2518 69.3749 98.4593 69.2827C98.6667 69.1675 98.7705 68.9024 98.7705 68.4875C98.7705 64.9144 98.7705 61.3414 98.7705 57.7684C98.7705 54.1724 98.7589 50.5994 98.7359 47.0494C98.7359 46.7728 98.6783 46.5999 98.563 46.5307C98.4708 46.4385 98.2979 46.3924 98.0443 46.3924C97.7908 46.3924 97.5257 46.4039 97.2491 46.427C96.9955 46.4501 96.7304 46.4616 96.4538 46.4616C96.2924 46.4616 96.1426 46.4039 96.0043 46.2887C95.866 46.1734 95.7968 46.0236 95.7968 45.8392C95.7968 45.4012 96.0273 45.1822 96.4884 45.1822C96.7419 45.1822 97.007 45.1937 97.2836 45.2168C97.5603 45.2398 97.8369 45.2629 98.1135 45.2859C98.6667 45.309 99.2085 45.332 99.7386 45.3551C100.292 45.3551 100.845 45.3551 101.398 45.3551C101.859 45.3551 102.309 45.3551 102.747 45.3551C103.208 45.3551 103.657 45.3436 104.095 45.3205C104.418 45.2975 104.729 45.2744 105.029 45.2514C105.329 45.2053 105.628 45.1822 105.928 45.1822C106.297 45.1822 106.481 45.3781 106.481 45.77C106.481 45.9314 106.435 46.0927 106.343 46.2541C106.251 46.3924 106.112 46.4616 105.928 46.4616C105.628 46.4616 105.329 46.4501 105.029 46.427C104.752 46.4039 104.453 46.3924 104.13 46.3924C103.876 46.3924 103.715 46.4616 103.646 46.5999C103.6 46.7151 103.577 46.888 103.577 47.1185C103.577 47.9715 103.565 48.8128 103.542 49.6427C103.542 50.4726 103.542 51.314 103.542 52.1669C103.542 54.8409 103.542 57.5264 103.542 60.2234C103.565 62.9205 103.577 65.606 103.577 68.28C103.577 68.5105 103.634 68.7295 103.75 68.937C103.865 69.1444 104.038 69.2827 104.268 69.3519C104.568 69.421 104.879 69.4556 105.202 69.4556C105.525 69.4556 105.836 69.4556 106.135 69.4556C107.864 69.4556 109.363 69.2827 110.631 68.937C111.898 68.5912 112.97 67.9573 113.846 67.0352C114.745 66.0901 115.483 64.73 116.059 62.955C116.128 62.7476 116.221 62.5632 116.336 62.4018C116.451 62.2174 116.624 62.1252 116.855 62.1252C116.993 62.1252 117.12 62.1713 117.235 62.2635C117.373 62.3557 117.442 62.4825 117.442 62.6439Z" fill="white"/>
</svg>
